<?xml version="1.0" encoding="UTF-8"?>
<!DOCTYPE svg PUBLIC "-//W3C//DTD SVG 1.1//EN" "http://www.w3.org/Graphics/SVG/1.1/DTD/svg11.dtd">
<!-- Creator: CorelDRAW -->
<svg xmlns="http://www.w3.org/2000/svg" xml:space="preserve" width="6.82666in" height="6.82666in" style="shape-rendering:geometricPrecision; text-rendering:geometricPrecision; image-rendering:optimizeQuality; fill-rule:evenodd; clip-rule:evenodd"
viewBox="0 0 6.82666 6.82666"
 xmlns:xlink="http://www.w3.org/1999/xlink">
 <defs>
  <style type="text/css">
   <![CDATA[
    .fil2 {fill:none}
    .fil1 {fill:#BF360C}
    .fil0 {fill:#E64A19}
    .fil3 {fill:#00C9CA;fill-rule:nonzero}
    .fil4 {fill:#424242;fill-rule:nonzero}
    .fil5 {fill:#F44336;fill-rule:nonzero}
   ]]>
  </style>
   <clipPath id="id0">
    <path d="M3.41333 0c1.88513,0 3.41333,1.5282 3.41333,3.41333 0,1.88513 -1.5282,3.41333 -3.41333,3.41333 -1.88513,0 -3.41333,-1.5282 -3.41333,-3.41333 0,-1.88513 1.5282,-3.41333 3.41333,-3.41333z"/>
   </clipPath>
 </defs>
 <g id="Layer_x0020_1">
  <metadata id="CorelCorpID_0Corel-Layer"/>
  <path class="fil0" d="M3.41333 0c1.88513,0 3.41333,1.5282 3.41333,3.41333 0,1.88513 -1.5282,3.41333 -3.41333,3.41333 -1.88513,0 -3.41333,-1.5282 -3.41333,-3.41333 0,-1.88513 1.5282,-3.41333 3.41333,-3.41333z"/>
  <g style="clip-path:url(#id0)">
   <g id="_332352592">
    <g>
     <polygon id="_3314328721" class="fil1" points="4.8248,2.19174 8.61107,5.97802 8.64,6.01224 8.66812,6.04715 8.69542,6.08276 8.72187,6.11902 8.74746,6.15594 8.77218,6.1935 8.79602,6.23168 8.81895,6.27046 8.84096,6.30985 8.86205,6.34981 8.88219,6.39033 8.90137,6.43141 8.91957,6.47302 8.93678,6.51515 8.953,6.55779 8.96819,6.60092 8.98234,6.64452 8.99545,6.68859 9.0075,6.7331 9.01846,6.77805 9.02834,6.82341 9.03711,6.86918 9.04476,6.91533 9.05127,6.96186 9.05663,7.00875 9.06082,7.05598 9.06384,7.10355 9.06566,7.15143 9.06627,7.1996 5.28,3.41333 5.27939,3.36515 5.27757,3.31728 5.27456,3.26971 5.27036,3.22248 5.265,3.17559 5.25849,3.12906 5.25084,3.08291 5.24207,3.03714 5.2322,2.99178 5.22123,2.94683 5.20919,2.90231 5.19607,2.85825 5.18192,2.81465 5.16673,2.77152 5.15052,2.72888 5.1333,2.68675 5.1151,2.64514 5.09592,2.60406 5.07578,2.56354 5.0547,2.52357 5.03268,2.48419 5.00975,2.44541 4.98591,2.40722 4.96119,2.36967 4.9356,2.33275 4.90915,2.29648 4.88185,2.26088 4.85373,2.22596 "/>
     <polygon id="_331433016" class="fil1" points="5.28,3.41333 9.06627,7.1996 9.06566,7.24778 9.06384,7.29566 9.06082,7.34322 9.05663,7.39045 9.05127,7.43734 9.04476,7.48387 9.03711,7.53003 9.02834,7.5758 9.01846,7.62116 9.0075,7.6661 8.99545,7.71062 8.98234,7.75469 8.96819,7.79829 8.953,7.84142 8.93678,7.88405 8.91957,7.92619 8.90137,7.9678 8.88219,8.00887 8.86205,8.04939 8.84096,8.08936 8.81895,8.12874 8.79602,8.16753 8.77218,8.20571 8.74746,8.24326 8.72187,8.28019 8.69542,8.31645 8.66812,8.35205 8.64,8.38697 8.61107,8.42119 8.58133,8.4547 8.55081,8.48748 8.51952,8.51953 4.73326,4.73326 4.76454,4.70121 4.79506,4.66843 4.8248,4.63492 4.85373,4.6007 4.88185,4.56578 4.90915,4.53018 4.9356,4.49391 4.96119,4.45699 4.98591,4.41944 5.00975,4.38126 5.03268,4.34247 5.0547,4.30309 5.07578,4.26312 5.09592,4.2226 5.1151,4.18152 5.1333,4.13991 5.15052,4.09778 5.16673,4.05515 5.18192,4.01202 5.19607,3.96841 5.20919,3.92435 5.22123,3.87983 5.2322,3.83489 5.24207,3.78952 5.25084,3.74376 5.25849,3.6976 5.265,3.65107 5.27036,3.60418 5.27456,3.55695 5.27757,3.50939 5.27939,3.46151 "/>
     <polygon id="_331433856" class="fil1" points="4.73326,4.73326 8.51952,8.51953 8.48748,8.55081 8.4547,8.58133 8.42119,8.61107 8.38696,8.64 8.35205,8.66813 8.31644,8.69542 8.28018,8.72187 8.24326,8.74746 8.2057,8.77219 8.16752,8.79602 8.12874,8.81895 8.08935,8.84097 8.04939,8.86205 8.00887,8.88219 7.96779,8.90137 7.92618,8.91957 7.88405,8.93679 7.84141,8.953 7.79828,8.96819 7.75468,8.98235 7.71061,8.99546 7.6661,9.0075 7.62115,9.01847 7.57579,9.02835 7.53002,9.03711 7.48387,9.04476 7.43734,9.05127 7.39045,9.05663 7.34322,9.06083 7.29565,9.06384 7.24778,9.06566 7.1996,9.06627 3.41333,5.28 3.46151,5.27939 3.50939,5.27757 3.55695,5.27456 3.60418,5.27036 3.65107,5.265 3.6976,5.25849 3.74376,5.25084 3.78952,5.24207 3.83489,5.2322 3.87983,5.22123 3.92435,5.20919 3.96841,5.19607 4.01202,5.18192 4.05515,5.16673 4.09778,5.15052 4.13991,5.1333 4.18152,5.1151 4.2226,5.09592 4.26312,5.07578 4.30309,5.0547 4.34247,5.03268 4.38126,5.00975 4.41944,4.98591 4.45699,4.96119 4.49391,4.9356 4.53018,4.90915 4.56578,4.88185 4.6007,4.85373 4.63492,4.8248 4.66843,4.79506 4.70121,4.76454 "/>
     <polygon id="_331433568" class="fil1" points="3.41333,5.28 7.1996,9.06627 7.15142,9.06566 7.10354,9.06384 7.05598,9.06083 7.00875,9.05663 6.96186,9.05127 6.91533,9.04476 6.86917,9.03711 6.82341,9.02835 6.77804,9.01847 6.7331,9.0075 6.68858,8.99546 6.64452,8.98235 6.60091,8.96819 6.55778,8.953 6.51515,8.93679 6.47302,8.91957 6.43141,8.90137 6.39033,8.88219 6.34981,8.86205 6.30984,8.84097 6.27046,8.81895 6.23167,8.79602 6.19349,8.77219 6.15594,8.74746 6.11902,8.72187 6.08275,8.69542 6.04715,8.66813 6.01223,8.64 5.97801,8.61107 2.19174,4.8248 2.22596,4.85373 2.26088,4.88185 2.29648,4.90915 2.33275,4.9356 2.36967,4.96119 2.40722,4.98591 2.44541,5.00975 2.48419,5.03268 2.52357,5.0547 2.56354,5.07578 2.60406,5.09592 2.64514,5.1151 2.68675,5.1333 2.72888,5.15052 2.77152,5.16673 2.81465,5.18192 2.85825,5.19607 2.90231,5.20919 2.94683,5.22123 2.99178,5.2322 3.03714,5.24207 3.08291,5.25084 3.12906,5.25849 3.17559,5.265 3.22248,5.27036 3.26971,5.27456 3.31728,5.27757 3.36515,5.27939 "/>
    </g>
    <path id="_332352976" class="fil1" d="M3.41333 1.54666c0.515453,0 0.982122,0.208945 1.31993,0.546744 0.337799,0.337803 0.546744,0.804472 0.546744,1.31993 0,0.515453 -0.208945,0.982122 -0.546744,1.31993 -0.337803,0.337799 -0.804472,0.546744 -1.31993,0.546744 -0.515453,0 -0.982122,-0.208945 -1.31993,-0.546744 -0.337799,-0.337803 -0.546744,-0.804472 -0.546744,-1.31993 0,-0.515453 0.208945,-0.982122 0.546744,-1.31993 0.337803,-0.337799 0.804472,-0.546744 1.31993,-0.546744z"/>
   </g>
  </g>
  <path class="fil2" d="M3.41333 0c1.88513,0 3.41333,1.5282 3.41333,3.41333 0,1.88513 -1.5282,3.41333 -3.41333,3.41333 -1.88513,0 -3.41333,-1.5282 -3.41333,-3.41333 0,-1.88513 1.5282,-3.41333 3.41333,-3.41333z"/>
  <path class="fil3" d="M3.41333 1.54666c0.515453,0 0.982122,0.208945 1.31993,0.546744 0.337799,0.337803 0.546744,0.804472 0.546744,1.31993 0,0.515453 -0.208945,0.982122 -0.546744,1.31993 -0.337803,0.337799 -0.804472,0.546744 -1.31993,0.546744 -0.515453,0 -0.982122,-0.208945 -1.31993,-0.546744 -0.337799,-0.337803 -0.546744,-0.804472 -0.546744,-1.31993 0,-0.515453 0.208945,-0.982122 0.546744,-1.31993 0.337803,-0.337799 0.804472,-0.546744 1.31993,-0.546744z"/>
  <path class="fil4" d="M4.0733 2.75336c-0.168898,-0.168898 -0.402228,-0.273362 -0.659972,-0.273362 -0.257744,0 -0.491075,0.104465 -0.659972,0.273362 -0.168898,0.168898 -0.273362,0.402228 -0.273362,0.659972 0,0.257744 0.104465,0.491075 0.273362,0.659972 0.168898,0.168898 0.402228,0.273362 0.659972,0.273362 0.257744,0 0.491075,-0.104465 0.659972,-0.273362 0.168898,-0.168898 0.273362,-0.402228 0.273362,-0.659972 0,-0.257744 -0.104465,-0.491075 -0.273362,-0.659972z"/>
  <path class="fil5" d="M3.90831 2.91835c-0.126673,-0.126673 -0.301673,-0.205024 -0.49498,-0.205024 -0.193307,0 -0.368307,0.0783504 -0.49498,0.205024 -0.126673,0.126673 -0.205024,0.301673 -0.205024,0.49498 0,0.193307 0.0783504,0.368307 0.205024,0.49498 0.126673,0.126673 0.301673,0.205024 0.49498,0.205024 0.193307,0 0.368307,-0.0783504 0.49498,-0.205024 0.126673,-0.126673 0.205024,-0.301673 0.205024,-0.49498 0,-0.193307 -0.0783504,-0.368307 -0.205024,-0.49498z"/>
 </g>
</svg>
